<svg id="Layer_1" data-name="Layer 1" xmlns="http://www.w3.org/2000/svg" viewBox="0 0 1080 127.97"><defs><style>.cls-1{fill:#f4490c;}</style></defs><path d="M236.91,74.82V91.29a13,13,0,0,1-13,13H196.73a13,13,0,0,1-13-13V38.43a13,13,0,0,1,13-13h27.14a13,13,0,0,1,13,13v14.7H220.08V42.22A1.12,1.12,0,0,0,218.89,41H202.06a1.11,1.11,0,0,0-1.18,1.18V87.5a1.11,1.11,0,0,0,1.18,1.18h16.83a1.12,1.12,0,0,0,1.19-1.18V74.82Z"/><path d="M252.91,25.39H302V41H270.1V56.09h29.39V71.73H270.1v17h32v15.65H252.91Z"/><path d="M377,104.33h-16.6l-26.31-46v46H317.51V25.39H334.1l26.31,46.23V25.39H377Z"/><path d="M389.45,25.39h58V41H427v63.29H409.84V41H389.45Z"/><path d="M488.78,75.29H477.05v29H459.86V25.39h43.85a13,13,0,0,1,13,13V62.25a13.13,13.13,0,0,1-9.36,12.57l14,29.51H502.53ZM477.05,41V59.65H498.5a1.12,1.12,0,0,0,1.18-1.19V42.22A1.11,1.11,0,0,0,498.5,41Z"/><path d="M599.13,104.33H581.59l-5-15.65h-24.3l-4.74,15.65H530l25.84-78.94h17.3ZM557.41,73.51h14.22L564.52,47.2Z"/><path d="M610.75,25.39h17.18V88.68h31.41v15.65H610.75Z"/><path d="M723.7,91.29a13,13,0,0,1-13,13H683.88a13,13,0,0,1-13-13V80.74h16.83V87.5a1.12,1.12,0,0,0,1.19,1.18h16.59a1.12,1.12,0,0,0,1.19-1.18v-11c0-.83-.6-1.31-1.54-1.54-2-.6-8.3-2.38-23-6.52-7-2-11-5.1-11-12.33V38.43a13,13,0,0,1,13-13h26.07a13,13,0,0,1,13,13V48.86H706.4V42.22A1.12,1.12,0,0,0,705.21,41H689.33a1.11,1.11,0,0,0-1.18,1.18v10.2c0,.94.59,1.3,1.3,1.54,1.18.35,7.94,2.25,23.59,6.63,6.75,1.9,10.66,5.1,10.66,12.33Z"/><path d="M758.43,104.33h-6.28a13,13,0,0,1-13-13V38.43a13,13,0,0,1,13-13h29.16a13,13,0,0,1,13,13V91.29a13,13,0,0,1-13,13H775v18.25h-16.6ZM776,41H757.48a1.11,1.11,0,0,0-1.18,1.18V87.5a1.11,1.11,0,0,0,1.18,1.18H776a1.12,1.12,0,0,0,1.19-1.18V42.22A1.12,1.12,0,0,0,776,41Z"/><path d="M865.11,25.39v65.9a13,13,0,0,1-13,13H824a13,13,0,0,1-13-13V25.39h17.19V87.5a1.11,1.11,0,0,0,1.18,1.18h17.43a1.11,1.11,0,0,0,1.18-1.18V25.39Z"/><path d="M944.64,104.33H927.1l-5-15.65h-24.3l-4.74,15.65H875.54l25.84-78.94h17.3ZM902.92,73.51h14.22L910,47.2Z"/><path d="M985.18,75.29H973.44v29H956.26V25.39h43.85a13,13,0,0,1,13,13V62.25a13.13,13.13,0,0,1-9.36,12.57l14,29.51H998.93ZM973.44,41V59.65H994.9a1.12,1.12,0,0,0,1.18-1.19V42.22A1.11,1.11,0,0,0,994.9,41Z"/><path d="M1030.81,25.39h49.07V41H1048V56.09h29.39V71.73H1048v17h32v15.65h-49.19Z"/><path class="cls-1" d="M125.75,49.77,77.89,2.15a37.43,37.43,0,0,1,47.86,47.62Z"/><path class="cls-1" d="M49.77,2.22A37.43,37.43,0,0,0,2.15,50.08Z"/><rect class="cls-1" x="37.17" y="37.17" width="53.63" height="53.63" transform="translate(-26.5 64.21) rotate(-45.14)"/><path class="cls-1" d="M78.2,125.75a37.43,37.43,0,0,0,47.62-47.86Z"/><path class="cls-1" d="M11.16,117.08a37.44,37.44,0,0,0,38.92,8.74L2.22,78.2A37.43,37.43,0,0,0,11.16,117.08Z"/></svg>